<?xml version="1.0" encoding="UTF-8"?>
<svg id="Layer_2" data-name="Layer 2" xmlns="http://www.w3.org/2000/svg" viewBox="0 0 312.44 94.8">
  <defs>
    <style>
      .cls-1 {
        fill: #ddf0eb;
      }

      .cls-2 {
        fill: #fff;
      }

      .cls-3 {
        font-family: SourceSansPro-BoldIt, 'Source Sans Pro';
        font-size: 72px;
        font-style: italic;
        font-weight: 700;
      }

      .cls-3, .cls-4 {
        fill: #81cbac;
      }

      .cls-5 {
        fill: #7c8097;
      }

      .cls-6 {
        fill: #ccebf6;
      }

      .cls-7 {
        fill: #abdff1;
      }

      .cls-8 {
        fill: #43444e;
      }

      .cls-9 {
        fill: #c9e0e9;
      }

      .cls-10 {
        fill: #e5f4fa;
      }

      .cls-11 {
        fill: #cdeaf5;
      }

      .cls-12 {
        fill: #c0e4d9;
      }
    </style>
  </defs>
  <g id="Layer_1-2" data-name="Layer 1">
    <g>
      <text class="cls-3" transform="translate(59.5 66)"><tspan x="0" y="0">Coughie</tspan></text>
      <path class="cls-1" d="M49.75,35.61c-3.84-1.85-7.66-2.91-12.05-2.73-2.98,.28-5.73,1.29-8.4,2.6-.85,.42-1.7,.83-2.55,1.25-1.03,.51-2.06,1.02-3.09,1.53-4.3,2.03-8.82,2.92-13.55,2.66-.14,.02-.29,.04-.43,.06,.14,.39,.42,.78,.42,1.17,.02,10.23,.02,20.47,.01,30.7,0,2.18-1.51,4.18-3.58,4.84-.2,.06-.39,.16-.58,.24H46.87c.77-.54,1.68-.95,2.27-1.65,.26-.31,.45-.67,.62-1.06V35.61Z"/>
      <path class="cls-10" d="M49.75,31.84c-.2-.7-.38-1.41-.53-2.12-.51-.68-1.3-1.26-1.9-1.91-.21-.23-.46-.42-.68-.64-.12-.12-.12-.14-.19-.22-.23-.24-.5-.42-.84-.58-1.03-.5-2.26-.8-2.26-.8-.67-.16-1.57-.35-2.67-.49,0,0,.01,.01,.01,.01-2.13-.01-4.25-.02-6.38-.04-2.47,.02-4.95,.04-7.42,.07v9.64s0,0,0,0c1.05,0,2.1,0,3.15,0,1.75,0,3.41,.42,4.87,1.16,1.69-.44,3.54-.49,5.35-.36,1.15,.02,2.26,.17,3.36,.39,.59,.08,1.19,.18,1.79,.31,.03,0,.05,0,.08,.01,1.14,.21,2.27,.53,3.34,.92,.11,.04,.22,.07,.33,.11,.19,.05,.39,.11,.58,.16v-5.63Z"/>
      <path class="cls-12" d="M10.33,42.23c0-.39-.28-.78-.43-1.17-1.64-.25-3.28-.44-4.9-.77-1.68-.34-3.33-.81-4.99-1.23v35.92c.55,1.33,1.59,2.25,3.13,2.77,.06,.02,.12,.05,.17,.07,.34,.06,.62,.07,.81,.08,.21,0,.31,0,.6,0,.29,0,.52,.02,.67,.03,.22,0,.44,0,.65-.01,.1-.02,.24-.05,.4-.1,0,0,.09-.03,.18-.06,2.16-.66,3.72-2.66,3.72-4.84,0-10.23,0-20.47-.01-30.7Z"/>
      <path class="cls-11" d="M49.75,30.66c-.2-.59-.57-1.37-1.24-2.17-1.39-1.67-3.27-2.42-4.16-2.71-1.81-.4-2.27-.48-2.28-.45-.02,.05,1.47,.19,2.53,1.11,.88,.76,1.07,1.7,1.14,2.06,.17,.87,0,1.77-.5,2.68-.86,1.58-2.61,2.22-4.66,2.24-4.59,.04-9.18,.02-13.77,.03,0,1.7,0,3.4,.01,5.1,.85-.33,1.7-.65,2.55-.98,2.67-1.02,5.42-1.81,8.39-2.04,4.39-.2,8.15,.64,12,2.09v-6.97Z"/>
      <path class="cls-10" d="M24.23,25.12c-2.33,0-4.19-.02-5.47-.03-1.28,0-1.57-.01-2.26-.01-2.9,0-2.86,.06-4.5,.03-.36,0-.97-.02-1.8,.01-.49,.02-.94,.03-1.49,.1-1.03,.13-1.87,.35-2.48,.53-.55,.17-1.34,.41-2.23,.9-.79,.43-1.29,.85-1.64,1.15-.88,.74-1.51,1.48-1.79,1.95-.26,.44-.44,.93-.56,1.41v9.16c1.67,.32,3.33,.68,5,.95,1.62,.26,3.27,.4,4.91,.6,.15-.02,.3-.03,.45-.05,.1-.66,.12-1.32,.3-1.96,1.02-3.71,5.36-6.39,10.3-6.4,1.1,0,2.19,0,3.29,0h0s-.02-8.35-.02-8.35Z"/>
      <path class="cls-6" d="M10.36,41.83c.1-.66,.12-1.32,.3-1.96,1.02-3.71,5.36-6.39,10.3-6.4,1.1,0,2.19,0,3.29,0,0,1.79,0,3.58,.02,5.38,0,.3,.13,.6,.21,.9-4.48,1.59-9.18,2.29-14.11,2.09Z"/>
      <path class="cls-7" d="M24.47,39.75c-.07-.3-.21-.6-.21-.9-.02-1.79-.01-3.58-.02-5.38,0,0,0,0,0,0,1.17,0,2.33,0,3.5,0,0,0,0,0,0,0,0,1.7,0,3.4,.01,5.1-1.1,.4-2.2,.79-3.29,1.19Z"/>
      <path class="cls-9" d="M24.23,25.12c1.18,0,2.35,0,3.53,0,0,2.78,0,5.56,0,8.34-1.17,0-2.33,0-3.5,0,0-2.78-.01-5.56-.02-8.35Z"/>
      <path class="cls-4" d="M46.23,38.61c0,1.24,.11,2.49-.01,3.72-.35,3.73-1.35,7.28-3.55,10.38-2.42,3.4-5.81,5.2-10.05,5.39-.34,.02-.68,.06-1.24,.1,.51-5.09,3.03-9.12,6.32-12.82-2.53,.89-4.51,2.47-6.05,4.6-2.33,3.23-3.27,6.86-3.2,10.79,.05,3.1,.03,6.2,0,9.3,0,1.31-.83,2.18-1.94,2.15-1.08-.03-1.71-.82-1.7-2.17,.02-3.16,.06-6.32-1.34-9.29-1.37-2.88-3.68-4.73-6.6-5.93-.14-.06-.29-.07-.44-.09-.07,0-.14,.03-.32,.08,3.16,2.57,5.67,5.47,5.76,9.87-1.98,.11-3.82-.16-5.61-.72-6.05-1.9-8.96-6.34-10.12-12.19-.12-.59-.31-1.17-.46-1.75,0-.3,0-.6,0-.9,.21-.06,.42-.18,.63-.19,3.48-.04,6.96,.03,10.35,.96,3.75,1.03,6.77,3,8.47,6.59,.08,.18,.24,.32,.41,.53,.22-1.67,.36-3.25,.65-4.79,.64-3.43,2.05-6.48,4.73-8.87,2.66-2.37,5.84-3.57,9.31-4.14,1.38-.23,2.77-.42,4.16-.63,.61,0,1.21,0,1.82,0Z"/>
      <path class="cls-8" d="M39.06,13.48h-2.44s-3.05,0-3.06,0c-.01,0-22.17,0-22.29,0-1.35,.58-1.86,1.32-2.07,1.72-.09,.17-.22,.46-.31,1.61-.03,.34-.05,.75-.06,1.26-.04,1.2-.02,1.85-.02,1.85,0,1.76,.01,3.52,.01,5.28,3.27,.02,6.53,.05,9.8,.07,1.46,0,2.91,0,4.37,0,6.03,0,12.06,0,18.22,0v-1.43c0-1.55,0-3.09,0-4.64,0-.43,0-1.63,0-2.03,0-.21,0-.43,0-.74,0-.6,0-1.09,0-1.41-.06-.16-.15-.33-.27-.51-.57-.78-1.55-.98-1.87-1.04Z"/>
      <path class="cls-8" d="M11.19,15.96c0-.16,.52-.17,1.42-.52,3.61-1.41,5.55-5.44,8.95-12.73,.27-.57,.88-1.91,2.29-2.46,.07-.03,1.51-.58,2.9,.03,1.29,.57,1.8,1.82,2.12,2.56,2.85,6.79,4.33,10.22,7.02,12.17,.57,.41,.88,.55,.85,.78-.27,2.01-25.5,1.28-25.55,.17Z"/>
      <path class="cls-5" d="M9.16,15.61c.08-.28,.26-.81,.74-1.33,.46-.5,.97-.77,1.26-.89,9.3,.03,18.61,.05,27.91,.08,.44,.07,.77,.2,.98,.3,.22,.11,.49,.23,.74,.5,.12,.13,.35,.37,.42,.75,.03,.17,.02,.32,0,.42-.15-.31-.43-.76-.97-1.06-.57-.32-1.16-.31-1.35-.31-8.99-.02-17.98-.04-26.97-.06-.23,0-.61,0-1.03,.16-.35,.13-.57,.29-.77,.44-.26,.19-.63,.52-.96,1.02Z"/>
      <rect class="cls-5" x="17.44" y="14.04" width=".43" height="11.2"/>
      <rect class="cls-5" x="21.18" y="14.03" width=".43" height="11.18"/>
      <rect class="cls-5" x="24.77" y="14.06" width=".43" height="11.18"/>
      <rect class="cls-5" x="28.65" y="14.04" width=".43" height="11.18"/>
      <rect class="cls-5" x="32.19" y="14.06" width=".43" height="11.18"/>
      <path class="cls-2" d="M11.65,26.75c-2.65,.07-5.4,.97-7.19,3s1.2,5.09,3.02,3.02c1.07-1.21,2.58-1.7,4.17-1.75,2.75-.07,2.76-4.35,0-4.27h0Z"/>
      <path class="cls-2" d="M2.77,32.51l-.09,.07c-.24,.13-.43,.3-.57,.52-.18,.2-.3,.43-.36,.69-.08,.27-.1,.54-.04,.81,.01,.27,.09,.52,.24,.75l.32,.41c.25,.25,.55,.42,.89,.52l.54,.07c.37,0,.71-.09,1.02-.28l.09-.07c.24-.13,.43-.3,.57-.52,.18-.2,.3-.43,.36-.69,.08-.27,.1-.54,.04-.81-.01-.27-.09-.52-.24-.75l-.32-.41c-.25-.25-.55-.42-.89-.52l-.54-.07c-.37,0-.71,.09-1.02,.28h0Z"/>
    </g>
  </g>
</svg>