<?xml version="1.0" encoding="UTF-8"?>
<svg id="Layer_2" data-name="Layer 2" xmlns="http://www.w3.org/2000/svg" viewBox="0 0 163.57 256.21">
  <defs>
    <style>
      .cls-1 {
        fill: #fff;
      }

      .cls-2 {
        fill: #a7a9ac;
      }

      .cls-3 {
        fill: #939598;
      }

      .cls-4 {
        fill: #6d6e71;
      }

      .cls-5 {
        fill: #808285;
      }

      .cls-6 {
        fill: #d1d3d4;
      }

      .cls-7 {
        fill: #e6e7e8;
      }

      .cls-8 {
        fill: #bcbec0;
      }

      .cls-9 {
        fill: #231f20;
      }

      .cls-10 {
        fill: #58595b;
      }

      .cls-11 {
        fill: #414042;
      }
    </style>
  </defs>
  <g id="Layer_1-2" data-name="Layer 1">
    <g>
      <path class="cls-10" d="M163.55,117.05c-12.62-6.07-25.19-9.56-39.61-8.98-9.78,.93-18.83,4.25-27.6,8.56-2.79,1.37-5.59,2.74-8.39,4.11-3.38,1.67-6.77,3.34-10.15,5.02-14.14,6.68-28.98,9.61-44.53,8.74-.47,.07-.95,.13-1.42,.2,.48,1.29,1.36,2.57,1.37,3.86,.07,33.64,.07,67.27,.04,100.91,0,7.15-4.95,13.73-11.75,15.9-.65,.21-1.28,.52-1.91,.79H154.08c2.53-1.77,5.54-3.13,7.45-5.43,.84-1.02,1.47-2.21,2.02-3.48V117.05Z"/>
      <path class="cls-8" d="M163.55,104.66c-.64-2.31-1.23-4.63-1.75-6.96-1.68-2.22-4.27-4.16-6.24-6.28-.69-.74-1.52-1.37-2.22-2.11-.39-.41-.38-.47-.63-.74-.74-.79-1.64-1.37-2.77-1.92-3.37-1.63-7.42-2.62-7.42-2.62-2.19-.53-5.16-1.15-8.78-1.6,0,0,.04,.05,.04,.05-6.99-.04-13.98-.08-20.98-.12-8.13,.07-16.27,.15-24.4,.22v31.68s0,0,0,0c3.46,0,6.91,0,10.37-.01,5.74,0,11.21,1.37,16.01,3.81,5.57-1.44,11.63-1.61,17.6-1.17,3.78,.06,7.42,.56,11.06,1.27,1.95,.27,3.91,.6,5.88,1.02,.08,.02,.17,.03,.26,.04,3.75,.7,7.45,1.73,10.97,3.04,.36,.12,.72,.24,1.09,.36,.64,.17,1.28,.36,1.91,.53l-.02-18.49Z"/>
      <path class="cls-11" d="M33.96,138.82c0-1.29-.93-2.57-1.42-3.86-5.38-.83-10.8-1.46-16.12-2.54-5.52-1.13-10.95-2.66-16.41-4.03v118.08c1.79,4.36,5.22,7.39,10.28,9.12,.19,.07,.38,.15,.57,.23,1.12,.18,2.03,.25,2.68,.27,.67,.03,1.03,0,1.98,.03,.94,.02,1.71,.07,2.22,.11,.72-.01,1.43-.02,2.15-.04,.32-.07,.78-.17,1.3-.34,0,0,.29-.11,.59-.2,7.08-2.17,12.23-8.75,12.24-15.9,.03-33.64,.03-67.27-.05-100.91Z"/>
      <path class="cls-3" d="M163.54,100.8c-.67-1.95-1.87-4.51-4.07-7.14-4.58-5.47-10.75-7.94-13.68-8.92-5.95-1.31-7.48-1.56-7.51-1.48-.06,.15,4.82,.63,8.32,3.66,2.9,2.51,3.51,5.6,3.74,6.79,.56,2.87-.03,5.83-1.65,8.8-2.83,5.19-8.57,7.31-15.33,7.37-15.08,.15-30.17,.07-45.25,.09,.01,5.58,.03,11.17,.04,16.76,2.79-1.07,5.59-2.14,8.38-3.21,8.77-3.37,17.81-5.96,27.59-6.7,14.44-.67,26.78,2.1,39.44,6.87,0-7.63-.02-15.27-.03-22.9Z"/>
      <path class="cls-8" d="M79.64,82.58c-7.65-.03-13.77-.07-17.98-.1-4.21-.03-5.18-.04-7.44-.04-9.54,0-9.41,.2-14.79,.11-1.18-.02-3.18-.06-5.92,.04-1.62,.06-3.11,.1-4.89,.33-3.4,.44-6.16,1.14-8.14,1.75-1.82,.56-4.4,1.36-7.35,2.97-2.59,1.42-4.23,2.79-5.39,3.78-2.88,2.44-4.95,4.85-5.88,6.42-.85,1.44-1.44,3.04-1.86,4.64l.04,30.12c5.46,1.06,10.9,2.25,16.41,3.12,5.32,.84,10.75,1.32,16.12,1.96,.49-.05,.99-.1,1.48-.16,.32-2.15,.4-4.34,.98-6.45,3.36-12.2,17.61-21.01,33.86-21.04,3.6,0,7.2,0,10.8-.01h0s-.07-27.44-.07-27.44Z"/>
      <path class="cls-5" d="M34.05,137.52c.32-2.15,.4-4.34,.98-6.45,3.36-12.2,17.61-21.01,33.86-21.04,3.6,0,7.2,0,10.8-.01,0,5.89-.02,11.78,.05,17.67,.01,.99,.44,1.98,.68,2.97-14.72,5.22-30.17,7.52-46.37,6.86Z"/>
      <path class="cls-4" d="M80.44,130.66c-.24-.99-.68-1.98-.69-2.97-.07-5.89-.05-11.78-.05-17.67,0,0,0,0,0,0,3.84,0,7.67-.02,11.51-.03,0,0,.01,0,.01,0,.01,5.58,.03,11.17,.04,16.75-3.61,1.31-7.22,2.61-10.83,3.92Z"/>
      <path class="cls-2" d="M79.64,82.58c3.87,0,7.73,0,11.6,0,0,9.14-.01,18.27-.02,27.41-3.84,0-7.67,.02-11.51,.03-.02-9.15-.05-18.29-.07-27.44Z"/>
      <path class="cls-9" d="M151.96,126.92c0,4.08,.35,8.2-.04,12.24-1.16,12.25-4.43,23.94-11.67,34.13-7.96,11.19-19.08,17.1-33.02,17.73-1.11,.05-2.23,.18-4.07,.34,1.67-16.73,9.97-29.97,20.76-42.15-8.33,2.93-14.83,8.13-19.87,15.12-7.66,10.62-10.75,22.55-10.53,35.48,.17,10.19,.09,20.38,.03,30.56-.03,4.3-2.74,7.18-6.37,7.06-3.56-.11-5.62-2.69-5.59-7.13,.07-10.4,.21-20.78-4.42-30.54-4.49-9.48-12.11-15.53-21.68-19.5-.45-.19-.96-.24-1.45-.28-.23-.02-.47,.11-1.05,.27,10.4,8.45,18.65,17.97,18.93,32.43-6.52,.38-12.55-.52-18.44-2.37-19.9-6.25-29.44-20.86-33.26-40.06-.39-1.94-1.01-3.83-1.52-5.75,0-.98,0-1.96,0-2.95,.69-.21,1.38-.6,2.07-.61,11.45-.13,22.89,.08,34.02,3.14,12.32,3.39,22.25,9.87,27.86,21.68,.28,.58,.8,1.05,1.35,1.75,.73-5.5,1.2-10.67,2.14-15.75,2.09-11.28,6.74-21.29,15.56-29.15,8.73-7.79,19.2-11.74,30.62-13.62,4.55-.75,9.12-1.38,13.68-2.06,2,0,3.99,0,5.99,0Z"/>
      <path class="cls-7" d="M128.4,44.3h-8.01s-10.04,0-10.07,0c-.04,0-72.87,0-73.26,0-4.43,1.91-6.11,4.34-6.79,5.64-.3,.56-.73,1.52-1.02,5.3-.09,1.12-.16,2.48-.21,4.15-.13,3.95-.07,6.08-.07,6.08-.03,5.78,.04,11.57,.04,17.35,10.74,.08,21.47,.16,32.21,.25,4.78,0,9.57,.01,14.35,.02,19.83,0,39.65,0,59.9,0v-4.7c0-5.08,0-10.16,0-15.25,0-1.41,0-5.35,0-6.66,0-.68,0-1.41,0-2.44,0-1.97-.02-3.58-.03-4.65-.2-.53-.48-1.1-.9-1.66-1.88-2.55-5.09-3.23-6.15-3.41Z"/>
      <path class="cls-7" d="M36.79,52.47c-.02-.54,1.72-.55,4.65-1.69,11.87-4.63,18.25-17.88,29.43-41.85,.88-1.88,2.91-6.27,7.53-8.09,.24-.09,4.98-1.91,9.54,.1,4.24,1.86,5.93,5.97,6.96,8.41,9.37,22.31,14.24,33.59,23.08,40.01,1.87,1.36,2.89,1.8,2.79,2.55-.88,6.62-83.84,4.2-83.98,.55Z"/>
      <path class="cls-6" d="M30.1,51.33c.25-.93,.86-2.66,2.42-4.36,1.51-1.65,3.2-2.52,4.16-2.93,30.58,.09,61.16,.17,91.75,.26,1.45,.23,2.54,.66,3.23,.99,.74,.35,1.61,.77,2.43,1.63,.4,.42,1.14,1.22,1.37,2.46,.1,.56,.06,1.04,.01,1.37-.49-1.01-1.42-2.51-3.19-3.5-1.87-1.04-3.81-1.02-4.45-1.03-29.55-.07-59.1-.14-88.65-.2-.77-.02-2.01,.03-3.39,.53-1.14,.41-1.88,.96-2.53,1.45-.84,.63-2.06,1.69-3.15,3.34Z"/>
      <rect class="cls-6" x="57.33" y="46.16" width="1.4" height="36.83"/>
      <rect class="cls-6" x="69.62" y="46.11" width="1.4" height="36.75"/>
      <rect class="cls-6" x="81.43" y="46.2" width="1.4" height="36.75"/>
      <rect class="cls-6" x="94.17" y="46.16" width="1.4" height="36.75"/>
      <rect class="cls-6" x="105.82" y="46.21" width="1.4" height="36.75"/>
      <path class="cls-1" d="M38.29,90.46c-8.08,.21-16.38,2.92-21.86,9.12-3.82,4.33,2.52,10.71,6.36,6.36s9.64-6.33,15.49-6.48,5.8-9.15,0-9h0Z"/>
      <path class="cls-1" d="M10.19,108.74l-.31,.24c-.52,.28-.95,.67-1.26,1.16-.4,.43-.67,.94-.81,1.53-.19,.6-.21,1.2-.08,1.79,.03,.6,.21,1.16,.53,1.67l.7,.91c.56,.56,1.22,.94,1.99,1.16l1.2,.16c.81,0,1.57-.21,2.27-.61l.31-.24c.52-.28,.95-.67,1.26-1.16,.4-.43,.67-.94,.81-1.53,.19-.6,.21-1.2,.08-1.79-.03-.6-.21-1.16-.53-1.67l-.7-.91c-.56-.56-1.22-.94-1.99-1.16l-1.2-.16c-.81,0-1.57,.21-2.27,.61h0Z"/>
    </g>
  </g>
</svg>