<?xml version="1.0" encoding="UTF-8"?>
<svg id="Layer_2" data-name="Layer 2" xmlns="http://www.w3.org/2000/svg" viewBox="0 0 331.75 118.58">
  <defs>
    <style>
      .cls-1 {
        fill: #ddf0eb;
      }

      .cls-2 {
        fill: #fff;
      }

      .cls-3 {
        font-family: SourceSansPro-BoldIt, 'Source Sans Pro';
        font-size: 72px;
        font-style: italic;
        font-weight: 700;
      }

      .cls-3, .cls-4 {
        fill: #81cbac;
      }

      .cls-5 {
        fill: #7c8097;
      }

      .cls-6 {
        fill: #ccebf6;
      }

      .cls-7 {
        fill: #abdff1;
      }

      .cls-8 {
        fill: #43444e;
      }

      .cls-9 {
        fill: #c9e0e9;
      }

      .cls-10 {
        fill: #e5f4fa;
      }

      .cls-11 {
        fill: #cdeaf5;
      }

      .cls-12 {
        fill: #c0e4d9;
      }
    </style>
  </defs>
  <g id="Layer_1-2" data-name="Layer 1">
    <g>
      <text class="cls-3" transform="translate(78.82 89.78)"><tspan x="0" y="0">Coughie</tspan></text>
      <path class="cls-1" d="M65.78,47.08c-5.08-2.44-10.13-3.85-15.93-3.61-3.94,.37-7.57,1.71-11.1,3.44-1.12,.55-2.25,1.1-3.37,1.65-1.36,.67-2.72,1.34-4.08,2.02-5.69,2.69-11.66,3.87-17.91,3.52-.19,.03-.38,.05-.57,.08,.19,.52,.55,1.03,.55,1.55,.03,13.53,.03,27.06,.02,40.59,0,2.88-1.99,5.52-4.73,6.39-.26,.08-.51,.21-.77,.32H61.97c1.02-.71,2.23-1.26,3-2.19,.34-.41,.59-.89,.81-1.4V47.08Z"/>
      <path class="cls-10" d="M65.78,42.09c-.26-.93-.5-1.86-.7-2.8-.68-.89-1.72-1.67-2.51-2.52-.28-.3-.61-.55-.89-.85-.16-.16-.15-.19-.25-.3-.3-.32-.66-.55-1.11-.77-1.36-.66-2.98-1.05-2.98-1.05-.88-.21-2.08-.46-3.53-.64,0,0,.02,.02,.02,.02-2.81-.02-5.62-.03-8.44-.05-3.27,.03-6.54,.06-9.81,.09v12.74s0,0,0,0c1.39,0,2.78,0,4.17,0,2.31,0,4.51,.55,6.44,1.53,2.24-.58,4.68-.65,7.08-.47,1.52,.03,2.99,.22,4.45,.51,.79,.11,1.57,.24,2.36,.41,.03,0,.07,.01,.1,.02,1.51,.28,3,.7,4.41,1.22,.15,.05,.29,.1,.44,.15,.26,.07,.51,.14,.77,.21v-7.44Z"/>
      <path class="cls-12" d="M13.66,55.83c0-.52-.37-1.03-.57-1.55-2.16-.33-4.34-.59-6.48-1.02-2.22-.45-4.4-1.07-6.6-1.62v47.49c.72,1.75,2.1,2.97,4.14,3.67,.08,.03,.15,.06,.23,.09,.45,.07,.82,.1,1.08,.11,.27,.01,.41,0,.79,.01,.38,0,.69,.03,.89,.04,.29,0,.58,0,.86-.01,.13-.03,.31-.07,.52-.14,0,0,.12-.05,.24-.08,2.85-.87,4.92-3.52,4.92-6.39,.01-13.53,.01-27.06-.02-40.59Z"/>
      <path class="cls-11" d="M65.78,40.54c-.27-.78-.75-1.81-1.64-2.87-1.84-2.2-4.32-3.19-5.5-3.59-2.39-.53-3.01-.63-3.02-.59-.02,.06,1.94,.26,3.35,1.47,1.17,1.01,1.41,2.25,1.5,2.73,.23,1.16-.01,2.34-.67,3.54-1.14,2.09-3.45,2.94-6.17,2.97-6.07,.06-12.13,.03-18.2,.04,0,2.25,.01,4.49,.02,6.74,1.12-.43,2.25-.86,3.37-1.29,3.53-1.35,7.16-2.4,11.1-2.69,5.81-.27,10.77,.84,15.86,2.76,0-3.07,0-6.14-.01-9.21Z"/>
      <path class="cls-10" d="M32.03,33.21c-3.08-.01-5.54-.03-7.23-.04-1.7-.01-2.08-.02-2.99-.02-3.84,0-3.79,.08-5.95,.04-.48,0-1.28-.03-2.38,.02-.65,.03-1.25,.04-1.97,.13-1.37,.18-2.48,.46-3.28,.7-.73,.22-1.77,.55-2.95,1.2-1.04,.57-1.7,1.12-2.17,1.52-1.16,.98-1.99,1.95-2.37,2.58-.34,.58-.58,1.22-.75,1.87v12.11c2.21,.43,4.4,.9,6.62,1.25,2.14,.34,4.32,.53,6.49,.79,.2-.02,.4-.04,.6-.06,.13-.87,.16-1.75,.4-2.6,1.35-4.91,7.08-8.45,13.62-8.46,1.45,0,2.9,0,4.34,0h0s-.03-11.03-.03-11.03Z"/>
      <path class="cls-6" d="M13.7,55.31c.13-.87,.16-1.75,.4-2.6,1.35-4.91,7.08-8.45,13.62-8.46,1.45,0,2.9,0,4.34,0,0,2.37,0,4.74,.02,7.11,0,.4,.18,.8,.27,1.2-5.92,2.1-12.14,3.03-18.65,2.76Z"/>
      <path class="cls-7" d="M32.35,52.55c-.1-.4-.27-.8-.28-1.2-.03-2.37-.02-4.74-.02-7.11,0,0,0,0,0,0,1.54,0,3.09,0,4.63-.01,0,0,0,0,0,0,0,2.25,.01,4.49,.02,6.74-1.45,.53-2.9,1.05-4.35,1.58Z"/>
      <path class="cls-9" d="M32.03,33.21c1.56,0,3.11,0,4.67,0,0,3.68,0,7.35,0,11.03-1.54,0-3.09,0-4.63,.01,0-3.68-.02-7.36-.03-11.04Z"/>
      <path class="cls-4" d="M61.12,51.05c0,1.64,.14,3.3-.02,4.92-.47,4.93-1.78,9.63-4.7,13.73-3.2,4.5-7.68,6.88-13.28,7.13-.45,.02-.9,.07-1.64,.14,.67-6.73,4.01-12.05,8.35-16.95-3.35,1.18-5.96,3.27-7.99,6.08-3.08,4.27-4.32,9.07-4.24,14.27,.07,4.1,.04,8.2,.01,12.29-.01,1.73-1.1,2.89-2.56,2.84-1.43-.05-2.26-1.08-2.25-2.87,.03-4.18,.08-8.36-1.78-12.28-1.81-3.81-4.87-6.25-8.72-7.84-.18-.07-.39-.09-.58-.11-.09,0-.19,.04-.42,.11,4.18,3.4,7.5,7.23,7.61,13.04-2.62,.15-5.05-.21-7.42-.95-8-2.51-11.84-8.39-13.38-16.11-.16-.78-.41-1.54-.61-2.31,0-.4,0-.79,0-1.19,.28-.09,.55-.24,.83-.25,4.61-.05,9.21,.03,13.68,1.26,4.96,1.36,8.95,3.97,11.2,8.72,.11,.23,.32,.42,.54,.71,.29-2.21,.48-4.29,.86-6.34,.84-4.54,2.71-8.56,6.26-11.73,3.51-3.13,7.72-4.72,12.31-5.48,1.83-.3,3.67-.55,5.5-.83,.8,0,1.61,0,2.41,0Z"/>
      <path class="cls-8" d="M51.64,17.82h-3.22s-4.04,0-4.05,0c-.02,0-29.31,0-29.46,0-1.78,.77-2.46,1.75-2.73,2.27-.12,.23-.29,.61-.41,2.13-.03,.45-.06,1-.09,1.67-.05,1.59-.03,2.44-.03,2.44-.01,2.33,.02,4.65,.02,6.98,4.32,.03,8.64,.07,12.96,.1,1.92,0,3.85,0,5.77,0,7.97,0,15.95,0,24.09,0v-1.89c0-2.04,0-4.09,0-6.13,0-.57,0-2.15,0-2.68,0-.27,0-.57,0-.98,0-.79,0-1.44-.01-1.87-.08-.21-.19-.44-.36-.67-.76-1.03-2.05-1.3-2.47-1.37Z"/>
      <path class="cls-8" d="M14.8,21.1c0-.22,.69-.22,1.87-.68,4.77-1.86,7.34-7.19,11.84-16.83,.35-.76,1.17-2.52,3.03-3.25,.1-.04,2-.77,3.84,.04,1.7,.75,2.38,2.4,2.8,3.38,3.77,8.97,5.73,13.51,9.28,16.09,.75,.55,1.16,.72,1.12,1.03-.35,2.66-33.72,1.69-33.78,.22Z"/>
      <path class="cls-5" d="M12.11,20.64c.1-.38,.35-1.07,.97-1.75,.61-.66,1.29-1.01,1.67-1.18,12.3,.03,24.6,.07,36.9,.1,.58,.09,1.02,.26,1.3,.4,.3,.14,.65,.31,.98,.66,.16,.17,.46,.49,.55,.99,.04,.23,.03,.42,0,.55-.2-.41-.57-1.01-1.28-1.41-.75-.42-1.53-.41-1.79-.41-11.89-.03-23.77-.05-35.66-.08-.31,0-.81,.01-1.36,.21-.46,.17-.76,.38-1.02,.58-.34,.25-.83,.68-1.27,1.34Z"/>
      <rect class="cls-5" x="23.06" y="18.57" width=".56" height="14.81"/>
      <rect class="cls-5" x="28" y="18.55" width=".56" height="14.78"/>
      <rect class="cls-5" x="32.75" y="18.58" width=".56" height="14.78"/>
      <rect class="cls-5" x="37.88" y="18.57" width=".56" height="14.78"/>
      <rect class="cls-5" x="42.56" y="18.59" width=".56" height="14.78"/>
      <path class="cls-2" d="M15.4,36.06c-3.33,.09-6.76,1.21-9.02,3.76-1.82,2.05,1.2,5.09,3.02,3.02,1.53-1.74,3.73-2.45,6-2.51,2.75-.07,2.76-4.35,0-4.27h0Z"/>
      <path class="cls-2" d="M3.99,43.55l-.12,.1c-.24,.13-.43,.3-.57,.52-.18,.2-.3,.43-.36,.69-.08,.27-.1,.54-.04,.81,.01,.27,.09,.52,.24,.75l.32,.41c.25,.25,.55,.42,.89,.52l.54,.07c.37,0,.71-.09,1.02-.28l.12-.1c.24-.13,.43-.3,.57-.52,.18-.2,.3-.43,.36-.69,.08-.27,.1-.54,.04-.81-.01-.27-.09-.52-.24-.75l-.32-.41c-.25-.25-.55-.42-.89-.52l-.54-.07c-.37,0-.71,.09-1.02,.28h0Z"/>
    </g>
  </g>
</svg>