<?xml version="1.0" encoding="UTF-8"?>
<svg id="Layer_2" data-name="Layer 2" xmlns="http://www.w3.org/2000/svg" viewBox="0 0 246.81 86.91">
  <defs>
    <style>
      .cls-1 {
        fill: #81cbac;
      }

      .cls-2 {
        fill: #43444e;
      }
    </style>
  </defs>
  <g id="Layer_1-2" data-name="Layer 1">
    <g>
      <g>
        <path class="cls-2" d="M0,53.57C0,37.23,11.09,24.7,24.84,24.7c5.4,0,9.79,2.38,12.46,6.77l-5.76,6.19c-2.02-2.88-4.46-4.03-7.34-4.03-7.27,0-13.54,8.93-13.54,19.3,0,7.06,2.81,11.38,9,11.38,3.24,0,5.98-1.44,8.28-3.46l4.32,6.62c-3.24,3.1-7.7,5.83-14.47,5.83C7.13,73.3,0,66.03,0,53.57Z"/>
        <path class="cls-2" d="M38.95,58.47c0-13.83,10.3-22.68,20.16-22.68,8.42,0,14.04,5.9,14.04,14.76,0,13.83-10.3,22.75-20.16,22.76-8.42,0-14.04-5.9-14.04-14.83Zm23.69-7.71c0-4.1-1.51-6.7-4.68-6.7-4.61,0-8.5,6.12-8.5,14.26,0,4.1,1.58,6.62,4.68,6.62,4.61,0,8.5-6.05,8.5-14.19Z"/>
        <path class="cls-2" d="M77.9,64.08c0-1.66,.22-3.38,.58-5.11l4.46-22.32h10.37s-4.25,21.03-4.25,21.03c-.29,1.37-.58,2.38-.58,3.31,0,2.3,1.3,3.46,3.46,3.46,2.02,0,4.1-1.37,6.77-4.46l4.54-23.33h10.37s-6.98,35.79-6.98,35.79h-8.5l.14-4.75h-.29c-3.17,3.02-7.34,5.62-11.67,5.62-5.9,0-8.42-3.17-8.43-9.22Z"/>
        <path class="cls-2" d="M114.26,81.87l4.39-6.48c2.66,1.94,5.83,3.31,9.07,3.31,4.25,0,7.27-2.3,8.5-6.41l1.87-6.19c-3.17,3.24-6.98,5.11-10.87,5.11-6.05,0-10.44-4.1-10.44-12.53,0-12.82,8.86-22.9,18.65-22.9,3.17,0,6.19,1.8,7.56,4.61h.22l1.51-3.74h8.42l-6.98,34.92c-2.09,10.51-8.79,15.34-18.72,15.34-4.1,0-9-1.29-13.18-5.04Zm24.27-23.55l2.09-10.87c-1.15-2.23-2.88-3.24-4.39-3.24-4.68,0-8.64,5.62-8.64,13.18,0,3.67,1.44,5.33,3.74,5.33,2.23,0,5.04-.94,7.2-4.39Z"/>
        <path class="cls-2" d="M165.09,22.1h10.37s-2.66,12.67-2.66,12.67l-1.58,5.98h.29c3.1-2.74,6.84-4.97,11.16-4.97,5.9,0,8.42,3.17,8.42,9.22,0,1.58-.14,3.38-.58,5.11l-4.46,22.32h-10.37s4.18-21.03,4.18-21.03c.36-1.37,.58-2.38,.58-3.31,0-2.3-1.22-3.53-3.38-3.53s-4.25,1.44-7.13,4.46l-4.61,23.4h-10.37s10.15-50.33,10.15-50.33Z"/>
        <polygon class="cls-2" points="194.54 72.43 204.91 72.43 212.11 43.7 201.74 43.7 194.54 72.43"/>
        <path class="cls-2" d="M215.06,57.96c0-13.25,10.44-22.18,20.02-22.18,8.64,0,11.74,6.05,11.74,13.46,0,3.46-1.15,7.34-1.73,8.35h-20.16c-.29,5.47,3.31,7.71,7.85,7.71,2.16,0,4.9-.86,6.55-2.09l3.46,6.12c-2.95,2.38-7.27,3.96-12.24,3.96-9.36,0-15.48-5.76-15.48-15.34Zm22.97-7.27c.14-.58,.29-1.22,.29-2.02,0-2.74-1.15-4.97-4.54-4.97-3.17,0-6.48,2.23-8.07,6.98h12.31Z"/>
      </g>
      <path class="cls-1" d="M240.91,.36c-.24,1.7-.35,3.44-.76,5.1-1.23,5.04-3.3,9.71-6.93,13.52-3.99,4.18-8.99,5.97-14.84,5.39-.47-.05-.94-.06-1.72-.11,1.71-6.87,5.97-11.89,11.21-16.31-3.65,.71-6.67,2.49-9.2,5.1-3.84,3.96-5.85,8.75-6.54,14.15-.55,4.26-1.2,8.5-1.84,12.74-.27,1.79-1.58,2.82-3.08,2.56-1.48-.26-2.18-1.46-1.9-3.31,.66-4.33,1.35-8.65,.01-13-1.3-4.22-4.1-7.21-7.86-9.44-.18-.1-.39-.16-.59-.21-.09-.02-.2,.02-.45,.05,3.82,4.15,6.68,8.62,5.92,14.66-2.74-.24-5.2-.98-7.54-2.11-7.92-3.81-11.01-10.48-11.43-18.71-.04-.83-.19-1.66-.28-2.49,.06-.41,.12-.82,.18-1.23,.3-.05,.61-.17,.9-.13,4.78,.64,9.54,1.42,13.99,3.37,4.93,2.16,8.67,5.46,10.3,10.72,.08,.26,.27,.49,.46,.81,.64-2.25,1.15-4.37,1.85-6.44,1.55-4.57,4.1-8.46,8.25-11.21C223.11,1.13,227.72,.12,232.59,.03c1.94-.04,3.88-.02,5.83-.03,.83,.12,1.66,.24,2.5,.36Z"/>
    </g>
  </g>
</svg>